
<svg width="1015" height="32" viewBox="0 0 1015 32" fill="none" xmlns="http://www.w3.org/2000/svg">
<g opacity="0.8">
<g clip-path="url(#clip0_758_925)">
<path d="M24.7231 14.0828C24.2731 14.5374 23.9284 15.086 23.7137 15.6896C23.499 16.2932 23.4196 16.9369 23.481 17.5749L23.4596 17.5534C23.5227 18.3043 23.4219 19.06 23.1641 19.7677C22.9063 20.4755 22.4979 21.1182 21.9671 21.6511C21.4364 22.184 20.7962 22.5942 20.0912 22.853C19.3863 23.1118 18.6336 23.213 17.8857 23.1497L17.907 23.1711C17.0124 23.0875 16.1138 23.2829 15.3339 23.7308C14.5539 24.1787 13.9305 24.8573 13.5487 25.6739C13.1669 26.4905 13.0452 27.4056 13.2004 28.2941C13.3555 29.1827 13.7798 30.0016 14.4154 30.6393C15.0511 31.2768 15.8671 31.7021 16.7523 31.857C17.6375 32.012 18.5487 31.8889 19.3617 31.5049C20.1748 31.1209 20.85 30.4943 21.2954 29.7109C21.7408 28.9273 21.9347 28.025 21.8506 27.1269L21.8732 27.1483C21.81 26.3974 21.9109 25.6417 22.1687 24.9339C22.4265 24.2262 22.835 23.5834 23.3657 23.0506C23.8965 22.5177 24.5366 22.1076 25.2416 21.8488C25.9465 21.5899 26.6992 21.4887 27.4471 21.5521L27.4246 21.5306C28.1554 21.5966 28.891 21.4763 29.5632 21.1808C30.2354 20.8854 30.8224 20.4244 31.2698 19.8405C31.7173 19.2567 32.0107 18.5689 32.1229 17.8408C32.2352 17.1128 32.1625 16.368 31.9116 15.6757C31.6609 14.9833 31.2401 14.3657 30.6882 13.8802C30.1364 13.3946 29.4714 13.0568 28.7549 12.8979C28.0384 12.739 27.2935 12.7643 26.5893 12.9715C25.8852 13.1786 25.2445 13.5609 24.7267 14.0828H24.7231Z" fill="#282938"/>
<path d="M15.9638 20.3602L15.9412 20.3388C16.5769 20.4031 17.2189 20.3247 17.8207 20.1094C18.4225 19.8942 18.9692 19.5472 19.4211 19.0938C19.8731 18.6404 20.219 18.0918 20.4339 17.4878C20.6488 16.8837 20.7273 16.2392 20.6637 15.6009L20.6863 15.6223C20.6232 14.8715 20.724 14.1157 20.9818 13.408C21.2396 12.7003 21.6481 12.0575 22.1789 11.5247C22.7096 10.9918 23.3498 10.5816 24.0547 10.3228C24.7596 10.0639 25.5124 9.96268 26.2603 10.0261L26.2377 10.0047C27.1324 10.089 28.0313 9.89416 28.8117 9.44682C29.5921 8.99941 30.216 8.32121 30.5984 7.50469C30.9808 6.68818 31.103 5.77313 30.9484 4.88432C30.7937 3.99551 30.3697 3.17624 29.7343 2.53824C29.0988 1.90024 28.2829 1.47458 27.3976 1.31932C26.5123 1.16406 25.6009 1.28675 24.7877 1.67067C23.9744 2.05458 23.2989 2.68103 22.8533 3.46456C22.4077 4.24809 22.2137 5.15056 22.2977 6.04887L22.2763 6.02622C22.3396 6.77718 22.239 7.53298 21.9812 8.24082C21.7235 8.94867 21.3149 9.59148 20.7842 10.1244C20.2535 10.6574 19.6132 11.0675 18.9081 11.3263C18.2031 11.585 17.4503 11.6861 16.7024 11.6224L16.7237 11.6451C16.088 11.5808 15.446 11.6591 14.8442 11.8745C14.2424 12.0897 13.6957 12.4367 13.2438 12.8901C12.7919 13.3435 12.4459 13.8921 12.231 14.4961C12.0161 15.1003 11.9376 15.7447 12.0012 16.383L11.9798 16.3615C12.0427 17.1124 11.9417 17.868 11.6838 18.5757C11.426 19.2833 11.0175 19.926 10.4868 20.4588C9.95608 20.9917 9.31599 21.4018 8.61116 21.6607C7.90632 21.9196 7.15372 22.021 6.40584 21.9578L6.42722 21.9792C5.53248 21.8949 4.63362 22.0897 3.85321 22.5371C3.0728 22.9845 2.44885 23.6627 2.06647 24.4792C1.68408 25.2958 1.56188 26.2108 1.71652 27.0996C1.87116 27.9884 2.29512 28.8077 2.93058 29.4457C3.56603 30.0837 4.38204 30.5093 5.2673 30.6646C6.15257 30.8198 7.06399 30.6972 7.87724 30.3133C8.6905 29.9294 9.366 29.3029 9.81157 28.5194C10.2572 27.7359 10.4512 26.8334 10.3672 25.935L10.3898 25.9565C10.3267 25.2056 10.4275 24.4498 10.6853 23.7422C10.9431 23.0344 11.3516 22.3917 11.8823 21.8588C12.4131 21.3259 13.0532 20.9157 13.7582 20.6569C14.4631 20.3981 15.2158 20.2969 15.9638 20.3602Z" fill="#282938"/>
<path d="M8.00484 17.9676C8.45492 17.5131 8.79951 16.9645 9.01401 16.3608C9.22851 15.7571 9.30764 15.1135 9.24575 14.4755L9.26831 14.497C9.20512 13.7459 9.30602 12.99 9.5639 12.282C9.82187 11.5741 10.2306 10.9313 10.7616 10.3983C11.2926 9.86538 11.9331 9.45531 12.6383 9.19665C13.3436 8.93798 14.0965 8.83701 14.8446 8.90077L14.8221 8.87931C15.7165 8.96343 16.615 8.76852 17.395 8.32116C18.1751 7.87379 18.7988 7.19575 19.1809 6.3795C19.563 5.56324 19.6851 4.64851 19.5305 3.76003C19.3758 2.87156 18.952 2.05261 18.3168 1.41484C17.6816 0.777078 16.8659 0.351553 15.9809 0.196298C15.096 0.0410433 14.185 0.163616 13.3719 0.547299C12.5589 0.930983 11.8836 1.5571 11.4379 2.34027C10.9924 3.12343 10.7983 4.02553 10.882 4.92354L10.8607 4.90208C10.9238 5.65299 10.823 6.4087 10.5652 7.11645C10.3074 7.82419 9.89892 8.46693 9.36814 8.9998C8.83739 9.53267 8.19721 9.94284 7.49228 10.2017C6.78736 10.4605 6.03467 10.5618 5.28674 10.4983L5.30812 10.5198C4.57731 10.454 3.8418 10.5745 3.16972 10.8701C2.49763 11.1656 1.91073 11.6267 1.46341 12.2107C1.01607 12.7946 0.722785 13.4824 0.610717 14.2104C0.49865 14.9385 0.571428 15.6832 0.82231 16.3754C1.07319 17.0676 1.49406 17.6851 2.04591 18.1706C2.59776 18.6562 3.26273 18.9939 3.97923 19.1527C4.69571 19.3115 5.44052 19.2861 6.14464 19.0789C6.84877 18.8718 7.48941 18.4895 8.00722 17.9676H8.00484Z" fill="#282938"/>
<path d="M44.7881 6.07617H48.3149V23.3073H44.7881V6.07617Z" fill="#282938"/>
<path d="M50.3127 17.4075C50.3077 16.1692 50.669 14.9574 51.3505 13.9254C52.0321 12.8934 53.0035 12.0876 54.1416 11.6104C55.2796 11.133 56.5332 11.0056 57.7435 11.2442C58.9537 11.4827 60.0663 12.0764 60.9401 12.9503C61.814 13.8241 62.4099 14.9387 62.6523 16.1529C62.8947 17.367 62.7728 18.6261 62.302 19.7706C61.8311 20.9151 61.0326 21.8936 60.0074 22.582C58.9822 23.2705 57.7766 23.638 56.5433 23.638C55.7245 23.6474 54.9122 23.4929 54.1537 23.1834C53.3952 22.8739 52.7058 22.4157 52.1256 21.8356C51.5455 21.2555 51.0864 20.5652 50.7751 19.8048C50.4638 19.0445 50.3066 18.2296 50.3127 17.4075ZM59.2471 17.4075C59.2325 16.8738 59.0613 16.3563 58.7552 15.9195C58.4492 15.4829 58.0217 15.1466 57.5262 14.9525C57.0307 14.7584 56.4893 14.7153 55.9695 14.8285C55.4498 14.9418 54.9748 15.2063 54.6041 15.589C54.2332 15.9718 53.9831 16.4558 53.8847 16.9805C53.7863 17.5053 53.8443 18.0475 54.0513 18.5394C54.2581 19.0313 54.6049 19.451 55.0482 19.7461C55.4914 20.0411 56.0115 20.1986 56.5433 20.1985C56.9075 20.2083 57.2698 20.1422 57.6072 20.0043C57.9448 19.8666 58.2502 19.66 58.5042 19.3978C58.7583 19.1355 58.9554 18.8234 59.0833 18.4808C59.2112 18.1383 59.267 17.7728 59.2471 17.4075Z" fill="#282938"/>
<path d="M76.8304 11.5054V22.7123C76.8304 26.6776 73.7502 28.3539 70.6236 28.3539C69.5227 28.4366 68.4204 28.2133 67.4376 27.7086C66.4549 27.2038 65.6294 26.4371 65.052 25.4925L68.061 23.7459C68.3037 24.2383 68.6904 24.6446 69.1694 24.9102C69.6483 25.1759 70.1967 25.2883 70.7411 25.2326C71.0891 25.281 71.4434 25.2502 71.7778 25.1426C72.1123 25.035 72.4184 24.8531 72.6734 24.6107C72.9285 24.3683 73.1261 24.0713 73.2514 23.7419C73.3767 23.4125 73.4266 23.0589 73.3975 22.7075V21.6286C72.9845 22.1359 72.4589 22.539 71.8627 22.8054C71.2665 23.0719 70.6163 23.1943 69.9645 23.1629C68.4135 23.1139 66.9423 22.4607 65.8624 21.3417C64.7825 20.2228 64.1787 18.7259 64.1787 17.1679C64.1787 15.6099 64.7825 14.1129 65.8624 12.9939C66.9423 11.8751 68.4135 11.2219 69.9645 11.1728C70.6163 11.1414 71.2665 11.2639 71.8627 11.5303C72.4589 11.7968 72.9845 12.1999 73.3975 12.7072V11.503L76.8304 11.5054ZM73.3987 17.1697C73.4224 16.599 73.2755 16.0343 72.9768 15.5482C72.6781 15.0621 72.2413 14.6769 71.7228 14.442C71.2042 14.2073 70.6275 14.1337 70.0669 14.2307C69.5064 14.3278 68.9875 14.591 68.5772 14.9866C68.1669 15.3823 67.8839 15.8921 67.7646 16.4505C67.6454 17.009 67.6953 17.5905 67.908 18.1203C68.1207 18.6499 68.4864 19.1036 68.9581 19.4229C69.4298 19.7422 69.9858 19.9124 70.5547 19.9118C70.9252 19.9377 71.2971 19.8854 71.6463 19.7584C71.9955 19.6313 72.3143 19.4322 72.5823 19.1739C72.8502 18.9155 73.0612 18.6037 73.2019 18.2585C73.3424 17.9134 73.4095 17.5425 73.3987 17.1697Z" fill="#282938"/>
<path d="M78.8273 17.4075C78.8224 16.1692 79.1836 14.9574 79.8653 13.9254C80.5469 12.8934 81.5182 12.0876 82.6563 11.6104C83.7944 11.133 85.0479 11.0056 86.2581 11.2442C87.4684 11.4827 88.5809 12.0764 89.4548 12.9503C90.3287 13.8241 90.9246 14.9387 91.167 16.1529C91.4095 17.367 91.2876 18.6261 90.8167 19.7706C90.3458 20.9151 89.5473 21.8936 88.5221 22.582C87.4969 23.2705 86.2913 23.638 85.058 23.638C84.2393 23.6474 83.4269 23.4929 82.6685 23.1834C81.9099 22.8739 81.2204 22.4157 80.6403 21.8356C80.0602 21.2555 79.6011 20.5652 79.2898 19.8048C78.9785 19.0445 78.8213 18.2296 78.8273 17.4075ZM87.7619 17.4075C87.7471 16.8738 87.5761 16.3563 87.2699 15.9195C86.9639 15.4829 86.5364 15.1466 86.0409 14.9525C85.5455 14.7584 85.004 14.7153 84.4843 14.8285C83.9645 14.9418 83.4896 15.2063 83.1187 15.589C82.7479 15.9718 82.4977 16.4558 82.3994 16.9805C82.3011 17.5053 82.359 18.0475 82.5659 18.5394C82.7729 19.0313 83.1197 19.451 83.5629 19.7461C84.0062 20.0411 84.5261 20.1986 85.058 20.1985C85.4222 20.2083 85.7845 20.1422 86.122 20.0043C86.4595 19.8666 86.7649 19.66 87.0189 19.3978C87.2729 19.1355 87.4701 18.8234 87.598 18.4808C87.7258 18.1383 87.7816 17.7728 87.7619 17.4075Z" fill="#282938"/>
<path d="M92.9336 8.34231C92.9336 7.92212 93.0577 7.51136 93.2902 7.16199C93.5227 6.8126 93.8532 6.54029 94.2402 6.37949C94.6268 6.21869 95.0521 6.17662 95.4622 6.2586C95.8734 6.34057 96.2497 6.54292 96.546 6.84004C96.8414 7.13716 97.0437 7.51571 97.1246 7.92783C97.2065 8.33994 97.1651 8.76712 97.0042 9.15532C96.8443 9.54357 96.5733 9.87533 96.2252 10.1087C95.8771 10.3422 95.4679 10.4669 95.0492 10.4669C94.4904 10.4612 93.9552 10.2356 93.5595 9.83844C93.1639 9.44117 92.9391 8.90403 92.9336 8.34231ZM93.2899 11.5053H96.8179V23.3082H93.2851L93.2899 11.5053Z" fill="#282938"/>
<path d="M112.045 17.4072C112.086 18.1873 111.973 18.9677 111.712 19.7036C111.452 20.4396 111.048 21.1166 110.526 21.6956C110.004 22.2746 109.373 22.7443 108.67 23.0775C107.966 23.4109 107.203 23.6012 106.426 23.6377C105.773 23.6735 105.119 23.5629 104.513 23.3138C103.909 23.0646 103.365 22.6834 102.924 22.1975V28.0287H99.3975V11.5058H102.924V12.6145C103.366 12.129 103.909 11.748 104.514 11.4992C105.119 11.2502 105.773 11.1398 106.426 11.1755C107.203 11.2118 107.966 11.4022 108.67 11.7354C109.374 12.0688 110.005 12.5385 110.527 13.1177C111.049 13.6969 111.453 14.3741 111.713 15.1102C111.974 15.8464 112.087 16.627 112.045 17.4072ZM108.518 17.4072C108.505 16.8549 108.329 16.3188 108.013 15.8662C107.698 15.4136 107.256 15.0646 106.744 14.8628C106.231 14.6609 105.671 14.6153 105.133 14.7316C104.595 14.8479 104.103 15.1209 103.718 15.5165C103.335 15.9121 103.075 16.4127 102.972 16.9557C102.871 17.4986 102.93 18.0598 103.144 18.5689C103.358 19.078 103.717 19.5126 104.175 19.8181C104.634 20.1236 105.172 20.2865 105.722 20.2864C106.1 20.3033 106.477 20.2398 106.829 20.1001C107.181 19.9604 107.499 19.7477 107.763 19.4758C108.027 19.2039 108.231 18.8791 108.361 18.5226C108.491 18.1661 108.545 17.7861 108.518 17.4072Z" fill="#282938"/>
<path d="M122.928 19.7666C122.928 22.4812 120.577 23.6377 118.039 23.6377C117.014 23.731 115.984 23.5132 115.082 23.0124C114.181 22.5117 113.45 21.7511 112.984 20.8288L116.039 19.0823C116.163 19.5085 116.429 19.8793 116.792 20.1328C117.155 20.3862 117.593 20.5069 118.035 20.4747C118.88 20.4747 119.304 20.2149 119.304 19.7439C119.304 18.4444 113.52 19.13 113.52 15.0466C113.52 12.4726 115.683 11.1754 118.129 11.1754C119.048 11.1463 119.957 11.3652 120.764 11.8093C121.57 12.2535 122.243 12.9065 122.712 13.7006L119.703 15.3291C119.571 15.0199 119.351 14.7567 119.071 14.572C118.791 14.3874 118.464 14.2895 118.129 14.2907C117.517 14.2907 117.14 14.5291 117.14 14.9512C117.145 16.2972 122.928 15.3995 122.928 19.7666Z" fill="#282938"/>
<path d="M135.812 11.5059V23.3088H132.285V22.1988C131.879 22.6886 131.362 23.0745 130.778 23.3249C130.194 23.5752 129.559 23.6829 128.925 23.639C126.55 23.639 124.531 21.9401 124.531 18.7509V11.5059H128.058V18.2324C128.029 18.5135 128.06 18.7976 128.151 19.0651C128.243 19.3326 128.39 19.577 128.585 19.7812C128.78 19.9855 129.016 20.1447 129.278 20.2478C129.541 20.3509 129.822 20.3955 130.103 20.3783C131.396 20.3783 132.289 19.6237 132.289 17.9475V11.5094L135.812 11.5059Z" fill="#282938"/>
<path d="M156.035 16.0617V23.308H152.508V16.3681C152.508 15.1878 151.943 14.4332 150.815 14.4332C149.64 14.4332 148.98 15.2593 148.98 16.6519V23.308H145.455V16.3681C145.455 15.1878 144.891 14.4332 143.762 14.4332C142.586 14.4332 141.928 15.2593 141.928 16.6519V23.308H138.401V11.5051H141.928V12.59C142.294 12.1086 142.774 11.727 143.324 11.4797C143.875 11.2326 144.478 11.1277 145.079 11.1748C145.682 11.1452 146.283 11.2731 146.822 11.5459C147.362 11.8188 147.822 12.2274 148.158 12.7319C148.549 12.2041 149.066 11.7844 149.663 11.5121C150.259 11.2398 150.914 11.1238 151.567 11.1748C154.266 11.176 156.035 13.111 156.035 16.0617Z" fill="#282938"/>
<path d="M159.018 11.433C160.463 11.433 161.635 10.2566 161.635 8.80538C161.635 7.35417 160.463 6.17773 159.018 6.17773C157.573 6.17773 156.4 7.35417 156.4 8.80538C156.4 10.2566 157.573 11.433 159.018 11.433Z" fill="#282938"/>
</g>
<path d="M253.877 7.80566H256.999V22.9675H253.877V7.80566Z" fill="#282938"/>
<path d="M258.748 17.7742C258.748 16.6833 259.069 15.6171 259.671 14.7105C260.272 13.804 261.128 13.0979 262.128 12.6819C263.128 12.2659 264.228 12.1587 265.289 12.3738C266.35 12.589 267.323 13.1167 268.086 13.8903C268.849 14.6638 269.367 15.6483 269.575 16.7189C269.782 17.7896 269.669 18.8981 269.251 19.9042C268.832 20.9102 268.127 21.7683 267.225 22.3698C266.322 22.9713 265.262 23.2891 264.18 23.2829C263.463 23.2885 262.751 23.1496 262.087 22.8744C261.424 22.5992 260.821 22.1931 260.315 21.6801C259.809 21.167 259.41 20.5572 259.141 19.8865C258.871 19.2158 258.738 18.4976 258.748 17.7742ZM266.574 17.7742C266.562 17.3039 266.412 16.8477 266.144 16.4627C265.876 16.0776 265.501 15.7808 265.067 15.6093C264.632 15.4379 264.157 15.3995 263.701 15.4987C263.245 15.598 262.828 15.8307 262.502 16.1676C262.177 16.5046 261.957 16.9309 261.87 17.3931C261.784 17.8553 261.834 18.3331 262.015 18.7666C262.197 19.2001 262.501 19.57 262.89 19.8302C263.278 20.0905 263.735 20.2293 264.201 20.2295C264.519 20.2357 264.834 20.1758 265.128 20.0536C265.422 19.9312 265.687 19.7492 265.908 19.5188C266.129 19.2884 266.3 19.0145 266.411 18.7143C266.522 18.4141 266.571 18.0941 266.553 17.7742H266.574Z" fill="#282938"/>
<path d="M281.967 12.5807V22.4543C281.967 25.9378 279.261 27.4173 276.523 27.4173C275.558 27.4972 274.589 27.3038 273.727 26.859C272.865 26.414 272.143 25.7353 271.642 24.8991L274.275 23.3672C274.489 23.8009 274.828 24.1587 275.248 24.3931C275.669 24.6274 276.15 24.727 276.627 24.6788C276.932 24.7165 277.241 24.6861 277.532 24.5895C277.824 24.4929 278.09 24.3327 278.313 24.1201C278.536 23.9076 278.709 23.648 278.821 23.36C278.932 23.072 278.98 22.7628 278.959 22.4543V21.4994C278.595 21.9436 278.134 22.2962 277.612 22.5294C277.09 22.7625 276.521 22.8697 275.951 22.8425C274.571 22.8425 273.247 22.2898 272.271 21.3059C271.295 20.322 270.747 18.9876 270.747 17.5962C270.747 16.2048 271.295 14.8704 272.271 13.8865C273.247 12.9026 274.571 12.3498 275.951 12.3498C276.521 12.3227 277.09 12.4299 277.612 12.663C278.134 12.8961 278.595 13.2488 278.959 13.6929V12.6437L281.967 12.5807ZM278.959 17.5647C278.98 17.0627 278.851 16.566 278.589 16.1382C278.328 15.7106 277.945 15.3715 277.491 15.1647C277.037 14.9579 276.532 14.8928 276.041 14.9778C275.549 15.0629 275.095 15.294 274.735 15.6416C274.375 15.9893 274.127 16.4375 274.021 16.9286C273.916 17.4198 273.959 17.9314 274.145 18.3977C274.331 18.864 274.65 19.2636 275.063 19.5452C275.476 19.8268 275.963 19.9776 276.461 19.9781C276.786 20.0016 277.113 19.9562 277.419 19.8447C277.726 19.7332 278.006 19.5581 278.242 19.3307C278.477 19.1032 278.662 18.8286 278.786 18.5244C278.91 18.2202 278.968 17.8933 278.959 17.5647Z" fill="#282938"/>
<path d="M283.726 17.7743C283.726 16.6843 284.047 15.6189 284.647 14.7128C285.248 13.8066 286.102 13.1005 287.101 12.684C288.1 12.2673 289.2 12.1588 290.26 12.3723C291.32 12.5857 292.294 13.1114 293.057 13.8828C293.821 14.6543 294.341 15.6367 294.55 16.706C294.76 17.7753 294.65 18.8832 294.235 19.8896C293.82 20.896 293.118 21.7556 292.218 22.3596C291.318 22.9637 290.261 23.285 289.18 23.2829C288.461 23.2899 287.747 23.1521 287.082 22.8777C286.416 22.6032 285.812 22.1976 285.304 21.6845C284.796 21.1714 284.395 20.5613 284.124 19.8898C283.853 19.2184 283.718 18.4991 283.726 17.7743ZM291.553 17.7743C291.54 17.3035 291.39 16.8469 291.122 16.4617C290.853 16.0765 290.478 15.7796 290.043 15.6085C289.608 15.4374 289.132 15.3995 288.676 15.4996C288.219 15.5998 287.802 15.8335 287.477 16.1715C287.152 16.5094 286.933 16.9367 286.848 17.3996C286.762 17.8625 286.814 18.3407 286.997 18.774C287.18 19.2072 287.485 19.5765 287.876 19.8354C288.266 20.0943 288.723 20.2315 289.19 20.2296C289.508 20.2358 289.823 20.1759 290.117 20.0536C290.411 19.9313 290.676 19.7493 290.897 19.5188C291.118 19.2884 291.289 19.0145 291.4 18.7144C291.511 18.4142 291.559 18.0942 291.542 17.7743H291.553Z" fill="#282938"/>
<path d="M296.08 9.7993C296.08 9.4299 296.189 9.06888 296.392 8.76168C296.596 8.45456 296.885 8.21513 297.224 8.07381C297.562 7.93245 297.935 7.89546 298.294 7.96753C298.653 8.03959 298.984 8.21751 299.243 8.47868C299.502 8.73985 299.678 9.07265 299.75 9.43499C299.821 9.79725 299.784 10.1728 299.644 10.514C299.504 10.8554 299.267 11.1471 298.962 11.3523C298.657 11.5575 298.299 11.667 297.933 11.667C297.443 11.6616 296.975 11.4631 296.629 11.1139C296.282 10.7649 296.085 10.293 296.08 9.7993ZM296.382 12.5799H299.504V22.9676H296.382V12.5799Z" fill="#282938"/>
<path d="M312.868 17.7738C312.904 18.4647 312.803 19.1557 312.571 19.807C312.341 20.4584 311.984 21.0574 311.522 21.5693C311.062 22.0813 310.504 22.4963 309.883 22.7903C309.262 23.0843 308.59 23.2515 307.904 23.2825C307.322 23.3215 306.739 23.2276 306.199 23.0078C305.658 22.7879 305.174 22.4479 304.781 22.0129V27.1438H301.659V12.58H304.781V13.5558C305.174 13.1221 305.659 12.7836 306.2 12.5655C306.74 12.3475 307.323 12.2556 307.904 12.2966C308.586 12.3276 309.256 12.4939 309.876 12.786C310.495 13.078 311.05 13.4901 311.511 13.9987C311.972 14.5073 312.33 15.1025 312.562 15.7502C312.795 16.398 312.899 17.0856 312.868 17.7738ZM309.746 17.7738C309.734 17.2865 309.579 16.8136 309.301 16.4146C309.023 16.0155 308.635 15.708 308.185 15.5305C307.734 15.353 307.242 15.3135 306.77 15.4169C306.297 15.5203 305.865 15.762 305.529 16.1117C305.192 16.4615 304.964 16.9036 304.876 17.3828C304.787 17.8621 304.841 18.357 305.03 18.8057C305.219 19.2543 305.535 19.6366 305.94 19.9048C306.343 20.173 306.816 20.3149 307.3 20.313C307.632 20.3272 307.962 20.2706 308.27 20.1471C308.578 20.0235 308.856 19.8356 309.087 19.5958C309.319 19.3561 309.497 19.0698 309.61 18.7558C309.723 18.4419 309.77 18.1072 309.746 17.7738Z" fill="#282938"/>
<path d="M322.37 19.8513C322.37 22.2436 320.289 23.2614 318.082 23.2614C317.183 23.343 316.279 23.1507 315.488 22.7093C314.698 22.2678 314.057 21.5976 313.648 20.7851L316.334 19.2532C316.44 19.6276 316.671 19.9538 316.987 20.1772C317.304 20.4008 317.686 20.5079 318.072 20.4808C318.811 20.4808 319.185 20.25 319.185 19.8302C319.185 18.6866 314.117 19.2952 314.117 15.6962C314.117 13.4298 316.011 12.2965 318.155 12.2965C318.971 12.2598 319.78 12.4461 320.499 12.836C321.216 13.2258 321.817 13.8044 322.235 14.5105L319.55 15.9375C319.431 15.6668 319.237 15.4366 318.992 15.2745C318.746 15.1125 318.459 15.0257 318.166 15.0247C317.625 15.0247 317.301 15.2345 317.301 15.6017C317.301 16.7979 322.37 16.0109 322.37 19.8513Z" fill="#282938"/>
<path d="M333.684 12.5801V22.9679H330.561V21.992C330.206 22.4239 329.756 22.7658 329.246 22.99C328.737 23.2142 328.181 23.3144 327.626 23.2826C325.544 23.2826 323.765 21.7822 323.765 18.9807V12.5801H326.887V18.5084C326.862 18.7563 326.892 19.0066 326.972 19.242C327.054 19.4774 327.184 19.6923 327.355 19.8718C327.526 20.0514 327.734 20.1914 327.964 20.2821C328.194 20.3728 328.441 20.412 328.687 20.3971C329.812 20.3971 330.602 19.7256 330.602 18.2986V12.5801H333.684Z" fill="#282938"/>
<path d="M351.376 16.5883V22.9679H348.253V16.8612C348.253 15.8119 347.764 15.1614 346.775 15.1614C345.786 15.1614 345.162 15.8853 345.162 17.113V22.9679H342.04V16.8612C342.04 15.8119 341.551 15.1614 340.562 15.1614C339.574 15.1614 338.949 15.8853 338.949 17.113V22.9679H335.826V12.5801H338.949V13.535C339.272 13.1131 339.694 12.7791 340.178 12.5629C340.661 12.3468 341.19 12.2553 341.717 12.2968C342.245 12.2691 342.771 12.3802 343.244 12.6193C343.716 12.8585 344.12 13.2174 344.413 13.6609C344.755 13.1976 345.21 12.8295 345.732 12.5909C346.255 12.3524 346.828 12.2512 347.4 12.2968C349.836 12.2968 351.376 13.9967 351.376 16.5883Z" fill="#282938"/>
<path d="M235.277 5.07755V0.618164H221.331V31.2568H235.277V26.7974C232.421 26.7974 229.681 25.6532 227.66 23.6166C225.64 21.58 224.505 18.8177 224.505 15.9375C224.505 13.0572 225.64 10.295 227.66 8.25836C229.681 6.22171 232.421 5.07755 235.277 5.07755Z" fill="#282938"/>
<path d="M235.278 5.07812V26.7979C238.135 26.7979 240.875 25.6538 242.895 23.6171C244.916 21.5805 246.05 18.8183 246.05 15.938C246.05 13.0578 244.916 10.2955 242.895 8.25894C240.875 6.22229 238.135 5.07812 235.278 5.07812Z" fill="#282938"/>
<path d="M353.999 12.5172C355.264 12.5172 356.289 11.4836 356.289 10.2088C356.289 8.9339 355.264 7.90039 353.999 7.90039C352.734 7.90039 351.709 8.9339 351.709 10.2088C351.709 11.4836 352.734 12.5172 353.999 12.5172Z" fill="#282938"/>
<g clip-path="url(#clip1_758_925)">
<path d="M485.134 9.3468H488.516V23.0049H485.134V9.3468ZM489.858 17.8479C489.858 14.47 491.933 12.4545 495.135 12.4545C498.337 12.4545 500.412 14.47 500.412 17.8479C500.412 21.2259 498.382 23.2527 495.135 23.2527C491.888 23.2527 489.858 21.2822 489.858 17.8479ZM497.018 17.8479C497.018 15.9901 496.285 14.8979 495.135 14.8979C493.985 14.8979 493.263 16.0239 493.263 17.8479C493.263 19.672 493.973 20.7755 495.135 20.7755C496.296 20.7755 497.018 19.7396 497.018 17.8592V17.8479ZM501.686 23.6693H504.933C505.087 24.0121 505.349 24.296 505.678 24.4786C506.007 24.6612 506.386 24.7328 506.759 24.6826C508.045 24.6826 508.721 23.9846 508.721 22.9712V21.0795H508.654C508.384 21.6593 507.947 22.1451 507.398 22.4743C506.849 22.8034 506.215 22.9608 505.576 22.9262C503.106 22.9262 501.471 21.0457 501.471 17.8142C501.471 14.5826 503.027 12.5446 505.621 12.5446C506.28 12.5188 506.931 12.6948 507.487 13.0489C508.043 13.4032 508.478 13.9186 508.733 14.5263V12.6459H512.115V22.8923C512.115 25.3583 509.939 26.8896 506.726 26.8896C503.738 26.8896 501.877 25.5496 501.686 23.6806V23.6693ZM508.733 17.8367C508.733 16.1928 507.977 15.1568 506.782 15.1568C505.587 15.1568 504.854 16.1815 504.854 17.8367C504.854 19.4919 505.576 20.4264 506.782 20.4264C507.988 20.4264 508.733 19.5144 508.733 17.8479V17.8367ZM513.389 17.8367C513.389 14.4587 515.464 12.4432 518.666 12.4432C521.868 12.4432 523.954 14.4587 523.954 17.8367C523.954 21.2146 521.924 23.2414 518.666 23.2414C515.407 23.2414 513.389 21.2822 513.389 17.8479V17.8367ZM520.549 17.8367C520.549 15.9788 519.816 14.8866 518.666 14.8866C517.516 14.8866 516.851 16.0239 516.851 17.8592C516.851 19.6945 517.561 20.7868 518.711 20.7868C519.861 20.7868 520.549 19.7396 520.549 17.8592V17.8367ZM525.239 10.1912C525.23 9.85026 525.323 9.51426 525.506 9.22591C525.688 8.93755 525.953 8.70978 526.265 8.57156C526.577 8.43333 526.924 8.39083 527.26 8.44944C527.597 8.50806 527.908 8.66514 528.155 8.90075C528.402 9.13639 528.574 9.44004 528.648 9.77311C528.722 10.1061 528.695 10.4536 528.571 10.7716C528.447 11.0895 528.232 11.3635 527.952 11.5589C527.672 11.7543 527.34 11.8622 526.998 11.869C526.772 11.8845 526.545 11.8531 526.331 11.7768C526.117 11.7005 525.922 11.5808 525.756 11.4254C525.591 11.2699 525.46 11.0821 525.371 10.8736C525.282 10.665 525.237 10.4404 525.239 10.2138V10.1912ZM525.239 12.6684H528.622V23.0049H525.239V12.6684ZM540.901 17.8367C540.901 21.2146 539.401 23.14 536.831 23.14C536.171 23.1824 535.515 23.0214 534.95 22.6791C534.385 22.3368 533.94 21.8295 533.673 21.2259H533.605V26.3153H530.223V12.6459H533.605V14.4925H533.673C533.927 13.879 534.364 13.3585 534.926 13.0019C535.486 12.6454 536.144 12.4699 536.807 12.4995C539.401 12.5446 540.945 14.4813 540.945 17.8592L540.901 17.8367ZM537.518 17.8367C537.518 16.1928 536.762 15.1456 535.579 15.1456C534.395 15.1456 533.639 16.204 533.628 17.8367C533.617 19.4694 534.395 20.5166 535.579 20.5166C536.762 20.5166 537.518 19.4919 537.518 17.8592V17.8367ZM546.707 12.432C549.514 12.432 551.217 13.7607 551.296 15.8888H548.218C548.218 15.1568 547.609 14.6952 546.674 14.6952C545.737 14.6952 545.32 15.0555 545.32 15.5848C545.32 16.1139 545.693 16.2828 546.448 16.4405L548.612 16.8796C550.676 17.3187 551.555 18.152 551.555 19.7171C551.555 21.8565 549.605 23.2302 546.73 23.2302C543.854 23.2302 541.972 21.8565 541.825 19.7509H545.083C545.185 20.5166 545.794 20.9669 546.786 20.9669C547.778 20.9669 548.229 20.6404 548.229 20.1C548.229 19.5594 547.914 19.4469 547.102 19.2779L545.152 18.8614C543.133 18.4448 542.073 17.3751 542.073 15.7987C542.096 13.7719 543.911 12.4545 546.707 12.4545V12.432ZM562.842 22.9824H559.583V21.057H559.515C559.337 21.7034 558.941 22.2693 558.396 22.6605C557.85 23.0517 557.187 23.2448 556.517 23.2076C556.002 23.2368 555.489 23.1555 555.009 22.9692C554.529 22.7828 554.095 22.4959 553.736 22.1276C553.377 21.7593 553.101 21.3184 552.927 20.8345C552.753 20.3507 552.685 19.8352 552.728 19.323V12.6459H556.111V18.5461C556.111 19.7734 556.742 20.4264 557.791 20.4264C558.037 20.427 558.279 20.375 558.503 20.2739C558.728 20.1729 558.928 20.0253 559.09 19.8408C559.252 19.6563 559.373 19.4393 559.444 19.2044C559.516 18.9695 559.537 18.7219 559.505 18.4785V12.6459H562.887L562.842 22.9824ZM564.477 12.6459H567.747V14.6389H567.814C567.994 14.001 568.38 13.4406 568.912 13.0453C569.445 12.65 570.093 12.4423 570.757 12.4545C571.432 12.4006 572.102 12.6023 572.635 13.0195C573.168 13.4368 573.524 14.0391 573.632 14.7064H573.7C573.904 14.032 574.328 13.4446 574.904 13.0368C575.479 12.6291 576.174 12.4242 576.88 12.4545C577.339 12.4391 577.798 12.5205 578.224 12.6934C578.651 12.8663 579.035 13.1269 579.354 13.4582C579.673 13.7896 579.919 14.1842 580.076 14.6165C580.232 15.0488 580.295 15.5091 580.261 15.9676V23.0049H576.88V16.8683C576.88 15.7424 576.372 15.2244 575.425 15.2244C575.214 15.2226 575.004 15.2661 574.811 15.3519C574.618 15.4377 574.446 15.5638 574.307 15.7217C574.166 15.8797 574.062 16.0658 574 16.2675C573.938 16.4691 573.92 16.6817 573.948 16.8909V23.0049H570.735V16.8233C570.735 15.7874 570.227 15.2244 569.302 15.2244C569.089 15.2245 568.878 15.2698 568.683 15.3573C568.489 15.4448 568.314 15.5727 568.172 15.7322C568.031 15.8919 567.924 16.0796 567.86 16.2832C567.797 16.4868 567.778 16.7016 567.803 16.9134V23.0049H564.42L564.477 12.6459Z" fill="#282938"/>
<path d="M475.674 9.96624C475.1 8.65605 474.341 7.435 473.419 6.34062C472.056 4.67455 470.356 3.31555 468.429 2.35308C466.503 1.39061 464.394 0.846471 462.242 0.756497C460.09 0.666522 457.943 1.03274 455.943 1.83105C453.942 2.62937 452.134 3.84167 450.637 5.38819C449.139 6.93469 447.987 8.78034 447.255 10.8037C446.524 12.827 446.23 14.9821 446.392 17.1271C446.555 19.2721 447.17 21.3585 448.198 23.2488C449.226 25.1392 450.644 26.7907 452.357 28.0946C453.456 28.9479 454.671 29.6417 455.965 30.1551C457.779 30.8976 459.721 31.28 461.682 31.2811C465.729 31.2722 469.607 29.6612 472.467 26.8012C475.326 23.9413 476.934 20.0657 476.937 16.024C476.94 13.9393 476.51 11.8766 475.674 9.96624ZM461.67 3.8522C463.431 3.85201 465.17 4.23631 466.767 4.97818C466.377 5.14614 465.968 5.26345 465.549 5.32724C464.17 5.52664 462.892 6.16618 461.906 7.15039C460.921 8.13461 460.28 9.41069 460.08 10.7883C459.993 11.5608 459.641 12.2795 459.084 12.8231C458.528 13.3667 457.8 13.7019 457.025 13.7721C455.646 13.9715 454.368 14.611 453.382 15.5952C452.397 16.5795 451.756 17.8556 451.556 19.2331C451.489 19.9677 451.175 20.658 450.666 21.1923C449.787 19.3382 449.392 17.2921 449.518 15.2446C449.644 13.1971 450.287 11.2147 451.386 9.4818C452.486 7.749 454.006 6.32206 455.806 5.33382C457.606 4.34558 459.627 3.82814 461.682 3.82968L461.67 3.8522ZM452.346 23.906C452.481 23.7821 452.616 23.6694 452.752 23.5343C453.755 22.5631 454.399 21.2811 454.578 19.8974C454.651 19.1197 454.999 18.3932 455.559 17.8481C456.098 17.2876 456.824 16.9432 457.6 16.8798C458.979 16.6804 460.257 16.0408 461.243 15.0566C462.228 14.0725 462.869 12.7963 463.068 11.4188C463.117 10.6053 463.467 9.83886 464.049 9.2682C464.602 8.71853 465.335 8.38664 466.113 8.3336C467.38 8.15949 468.562 7.59689 469.495 6.72345C470.558 7.60405 471.459 8.66341 472.156 9.85371C472.113 9.91149 472.064 9.96438 472.01 10.0113C471.471 10.5768 470.747 10.9287 469.969 11.0022C468.588 11.1981 467.308 11.8366 466.322 12.8214C465.336 13.8062 464.696 15.0843 464.5 16.4632C464.421 17.2383 464.075 17.9622 463.523 18.5122C462.97 19.0622 462.244 19.4044 461.467 19.4808C460.084 19.6787 458.801 20.317 457.81 21.3008C456.819 22.2846 456.172 23.5615 455.965 24.9418C455.904 25.4921 455.715 26.0206 455.413 26.4845C454.256 25.7985 453.22 24.9274 452.346 23.906ZM461.67 28.2522C460.526 28.2534 459.388 28.0942 458.288 27.7793C458.664 27.079 458.908 26.3157 459.009 25.5273C459.088 24.7539 459.432 24.0314 459.983 23.4816C460.533 22.9319 461.257 22.5886 462.031 22.5097C463.412 22.3126 464.693 21.674 465.681 20.6896C466.668 19.7052 467.311 18.4278 467.511 17.0487C467.59 16.2753 467.934 15.5527 468.484 15.003C469.035 14.4533 469.758 14.11 470.533 14.031C471.572 13.896 472.563 13.5095 473.419 12.9051C473.894 14.7043 473.951 16.5884 473.584 18.4126C473.217 20.237 472.436 21.9531 471.302 23.4294C470.167 24.9056 468.709 26.1029 467.04 26.9291C465.37 27.7553 463.534 28.1887 461.67 28.1959V28.2522Z" fill="#282938"/>
</g>
<g clip-path="url(#clip2_758_925)">
<path d="M715.335 25.4924C714.56 25.5342 713.794 25.3151 713.16 24.8707C712.895 24.6754 712.682 24.4189 712.539 24.1233C712.396 23.8276 712.327 23.5019 712.34 23.1741V11.1682C712.333 11.1173 712.339 11.0657 712.355 11.0173C712.372 10.9689 712.4 10.9249 712.436 10.8887C712.473 10.8525 712.517 10.825 712.565 10.8083C712.614 10.7917 712.666 10.7863 712.717 10.7926H714.905C715.153 10.7926 715.27 10.9221 715.27 11.1682V22.2416C715.27 22.7338 715.491 22.9798 715.947 22.9798C716.14 22.9878 716.334 22.9659 716.52 22.9151C716.781 22.9151 716.924 22.9928 716.937 23.2259L717.132 24.8448C717.142 24.892 717.141 24.9407 717.13 24.9875C717.118 25.0344 717.097 25.0782 717.068 25.1163C717.038 25.1543 717.001 25.1857 716.958 25.2081C716.915 25.2305 716.868 25.2436 716.82 25.2464C716.34 25.4038 715.84 25.4868 715.335 25.4924Z" fill="#282938"/>
<path d="M727.643 24.1072C726.543 25.0105 725.162 25.5046 723.736 25.5046C722.31 25.5046 720.928 25.0105 719.829 24.1072C718.862 23.1371 718.32 21.8268 718.32 20.4613C718.32 19.0959 718.862 17.7856 719.829 16.8155C720.93 15.9169 722.311 15.4258 723.736 15.4258C725.161 15.4258 726.541 15.9169 727.643 16.8155C728.587 17.7946 729.114 19.0985 729.114 20.4549C729.114 21.8113 728.587 23.1152 727.643 24.0943V24.1072ZM721.887 22.3975C722.397 22.8572 723.06 23.1118 723.749 23.1118C724.437 23.1118 725.101 22.8572 725.611 22.3975C726.073 21.8697 726.327 21.1934 726.327 20.4938C726.327 19.794 726.073 19.1179 725.611 18.5899C725.101 18.1303 724.437 17.8757 723.749 17.8757C723.06 17.8757 722.397 18.1303 721.887 18.5899C721.425 19.1179 721.17 19.794 721.17 20.4938C721.17 21.1934 721.425 21.8697 721.887 22.3975Z" fill="#282938"/>
<path d="M741.161 15.7522C741.409 15.7522 741.526 15.8818 741.526 16.1279V25.4139C741.549 26.0407 741.431 26.6646 741.181 27.2404C740.931 27.8162 740.555 28.3292 740.08 28.7425C739.027 29.6355 737.673 30.0982 736.291 30.0376C735.042 30.0813 733.81 29.7422 732.761 29.0663C732.313 28.7738 731.931 28.393 731.637 27.9474C731.344 27.5019 731.146 27.001 731.055 26.476C731.055 26.2169 731.055 26.1004 731.407 26.1004H733.595C733.688 26.1036 733.778 26.1333 733.854 26.1862C733.93 26.239 733.989 26.3127 734.024 26.3983C734.166 26.7917 734.449 27.1191 734.819 27.3178C735.269 27.549 735.771 27.6647 736.278 27.6546C736.583 27.6713 736.889 27.6271 737.178 27.5248C737.466 27.4225 737.731 27.2642 737.958 27.0588C738.164 26.844 738.325 26.5899 738.43 26.3116C738.535 26.0334 738.583 25.7368 738.57 25.4399V24.624C737.786 25.197 736.833 25.4932 735.861 25.4658C735.18 25.4904 734.502 25.378 733.866 25.1354C733.231 24.8929 732.651 24.5251 732.162 24.054C731.223 23.0881 730.698 21.7971 730.698 20.4536C730.698 19.11 731.223 17.8191 732.162 16.8531C732.654 16.3863 733.234 16.022 733.869 15.7818C734.504 15.5416 735.182 15.4303 735.861 15.4544C736.861 15.4281 737.84 15.7435 738.635 16.348V16.1408C738.629 16.0912 738.634 16.0408 738.65 15.9935C738.666 15.9461 738.693 15.9028 738.727 15.8669C738.762 15.8309 738.805 15.8031 738.852 15.7856C738.899 15.7679 738.949 15.761 739 15.7652L741.161 15.7522ZM736.108 23.1604C736.444 23.1707 736.777 23.1077 737.086 22.9756C737.394 22.8436 737.669 22.6458 737.892 22.3963C738.325 21.8403 738.56 21.1569 738.56 20.4536C738.56 19.7504 738.325 19.067 737.892 18.5109C737.67 18.2647 737.397 18.0699 737.091 17.9402C736.785 17.8104 736.454 17.7488 736.121 17.7597C735.782 17.7491 735.444 17.812 735.132 17.9439C734.819 18.0758 734.539 18.2737 734.311 18.5238C733.831 19.0557 733.579 19.7526 733.608 20.4665C733.584 21.1734 733.831 21.863 734.298 22.3963C734.527 22.6457 734.807 22.8432 735.119 22.9751C735.432 23.1069 735.769 23.1702 736.108 23.1604Z" fill="#282938"/>
<path d="M752.765 24.1064C751.663 25.005 750.283 25.4961 748.858 25.4961C747.433 25.4961 746.052 25.005 744.951 24.1064C744.006 23.1251 743.479 21.8191 743.479 20.4606C743.479 19.102 744.006 17.7959 744.951 16.8147C746.053 15.9184 747.434 15.4287 748.858 15.4287C750.282 15.4287 751.662 15.9184 752.765 16.8147C753.709 17.7937 754.236 19.0977 754.236 20.4541C754.236 21.8104 753.709 23.1144 752.765 24.0934V24.1064ZM746.996 22.3968C747.245 22.6329 747.54 22.8175 747.862 22.9398C748.183 23.0621 748.527 23.1197 748.871 23.1091C749.213 23.1179 749.554 23.0596 749.873 22.9374C750.193 22.815 750.485 22.6314 750.733 22.3968C751.188 21.8653 751.437 21.1905 751.437 20.4929C751.437 19.7954 751.188 19.1206 750.733 18.5891C750.485 18.3544 750.193 18.1708 749.873 18.0485C749.554 17.9263 749.213 17.8679 748.871 17.8767C748.527 17.8662 748.183 17.9238 747.862 18.046C747.54 18.1683 747.245 18.3529 746.996 18.5891C746.541 19.1206 746.292 19.7954 746.292 20.4929C746.292 21.1905 746.541 21.8653 746.996 22.3968Z" fill="#282938"/>
<path d="M758.939 13.5513C758.595 13.851 758.153 14.0161 757.695 14.0161C757.238 14.0161 756.796 13.851 756.451 13.5513C756.295 13.4048 756.171 13.2281 756.086 13.0322C756.001 12.8362 755.957 12.625 755.957 12.4116C755.957 12.1981 756.001 11.9869 756.086 11.791C756.171 11.595 756.295 11.4184 756.451 11.2719C756.799 10.9796 757.24 10.8193 757.695 10.8193C758.15 10.8193 758.591 10.9796 758.939 11.2719C759.095 11.4184 759.219 11.595 759.304 11.791C759.389 11.9869 759.433 12.1981 759.433 12.4116C759.433 12.625 759.389 12.8362 759.304 13.0322C759.219 13.2281 759.095 13.4048 758.939 13.5513ZM759.212 25.4925C758.438 25.5303 757.673 25.3116 757.037 24.8707C756.776 24.6725 756.567 24.4151 756.427 24.12C756.286 23.8249 756.219 23.5005 756.23 23.1741V16.1287C756.224 16.0778 756.229 16.0261 756.246 15.9777C756.262 15.9293 756.29 15.8853 756.327 15.8491C756.363 15.8129 756.407 15.7854 756.456 15.7687C756.505 15.7521 756.556 15.7467 756.608 15.753H758.796C759.043 15.753 759.16 15.8826 759.16 16.1287V22.2417C759.16 22.7338 759.382 22.9799 759.824 22.9799C760.022 22.987 760.219 22.9651 760.411 22.9151C760.671 22.9151 760.814 22.9929 760.827 23.2259L761.023 24.8449C761.032 24.8921 761.031 24.9407 761.02 24.9876C761.009 25.0344 760.988 25.0783 760.958 25.1163C760.929 25.1544 760.891 25.1857 760.848 25.2081C760.805 25.2306 760.758 25.2436 760.71 25.2464C760.227 25.4047 759.721 25.4877 759.212 25.4925Z" fill="#282938"/>
<path d="M769.072 15.4419C769.756 15.4151 770.437 15.5251 771.077 15.7653C771.718 16.0056 772.302 16.3714 772.797 16.8407C773.718 17.8237 774.23 19.1172 774.23 20.4607C774.23 21.804 773.718 23.0977 772.797 24.0806C772.305 24.5541 771.721 24.9233 771.08 25.166C770.44 25.4086 769.757 25.5197 769.072 25.4922C768.097 25.5138 767.141 25.2182 766.35 24.6504V29.3258C766.35 29.5719 766.22 29.6885 765.973 29.6885H763.785C763.735 29.6977 763.683 29.6948 763.635 29.6799C763.586 29.6649 763.542 29.6385 763.506 29.6028C763.47 29.567 763.444 29.5232 763.429 29.4749C763.414 29.4267 763.411 29.3755 763.42 29.3258V18.7057C763.435 18.6019 763.426 18.4959 763.393 18.3962C763.36 18.2965 763.303 18.2059 763.229 18.1317C763.154 18.0575 763.063 18.0016 762.963 17.9686C762.863 17.9356 762.756 17.9264 762.652 17.9415H762.222C761.935 17.9415 761.792 17.838 761.792 17.6307V16.1025C761.785 16.0079 761.811 15.9139 761.866 15.8362C761.92 15.7583 762 15.7015 762.092 15.6751C762.542 15.5122 763.019 15.4333 763.498 15.4419C763.976 15.3999 764.456 15.5007 764.876 15.7314C765.296 15.9622 765.637 16.3123 765.856 16.7371C766.275 16.3151 766.777 15.9826 767.33 15.76C767.883 15.5372 768.476 15.429 769.072 15.4419ZM767.041 22.3969C767.273 22.6382 767.552 22.8303 767.861 22.9615C768.17 23.0927 768.502 23.1603 768.838 23.1603C769.174 23.1603 769.507 23.0927 769.815 22.9615C770.124 22.8303 770.403 22.6382 770.635 22.3969C771.124 21.8543 771.381 21.1434 771.351 20.4154C771.385 19.6866 771.128 18.9741 770.635 18.4337C770.403 18.1924 770.124 18.0003 769.815 17.8691C769.507 17.7379 769.174 17.6703 768.838 17.6703C768.502 17.6703 768.17 17.7379 767.861 17.8691C767.552 18.0003 767.273 18.1924 767.041 18.4337C766.567 18.9836 766.32 19.6917 766.35 20.4154C766.324 21.1383 766.57 21.845 767.041 22.3969Z" fill="#282938"/>
<path d="M780.375 25.4916C779.206 25.5394 778.048 25.2613 777.028 24.6886C776.62 24.4439 776.272 24.1106 776.01 23.7137C775.749 23.3169 775.581 22.8667 775.518 22.3963C775.518 22.1372 775.609 22.0077 775.895 22.0077H777.81C777.901 22.0112 777.99 22.0397 778.065 22.09C778.142 22.1403 778.201 22.2104 778.24 22.2926C778.513 22.992 779.229 23.3417 780.375 23.3417C780.776 23.3599 781.173 23.2798 781.535 23.1085C781.659 23.0526 781.766 22.964 781.845 22.8522C781.922 22.7404 781.969 22.6097 781.978 22.474C781.978 22.1372 781.769 21.9041 781.353 21.7486C780.858 21.585 780.347 21.4764 779.829 21.4249C779.215 21.3558 778.606 21.2476 778.005 21.1011C777.421 20.9697 776.891 20.6674 776.481 20.2334C776.241 19.9383 776.063 19.5971 775.96 19.2309C775.857 18.8647 775.831 18.4814 775.884 18.1049C775.937 17.7283 776.067 17.3665 776.266 17.0419C776.465 16.7174 776.729 16.4371 777.042 16.2184C777.981 15.6237 779.082 15.3341 780.193 15.3895C781.27 15.3534 782.335 15.6181 783.267 16.1537C783.642 16.3653 783.966 16.6577 784.214 17.0094C784.461 17.3612 784.628 17.7635 784.7 18.187C784.7 18.446 784.582 18.5756 784.348 18.5756H782.421C782.339 18.5803 782.259 18.5607 782.188 18.5191C782.119 18.4775 782.064 18.4159 782.029 18.3425C781.9 18.0357 781.658 17.7899 781.353 17.656C781.007 17.4764 780.622 17.3873 780.232 17.397C779.85 17.3764 779.469 17.4521 779.125 17.6172C779.004 17.6638 778.9 17.7453 778.826 17.8515C778.751 17.9578 778.71 18.0836 778.709 18.2129C778.717 18.3901 778.782 18.5599 778.895 18.6974C779.007 18.8349 779.161 18.9329 779.333 18.9771C779.834 19.1645 780.354 19.2949 780.883 19.3657C781.493 19.4454 782.097 19.5578 782.694 19.7024C783.278 19.8337 783.808 20.1359 784.218 20.5701C784.437 20.8093 784.606 21.0892 784.715 21.3937C784.825 21.6983 784.872 22.0215 784.856 22.3445C784.867 22.7921 784.762 23.2351 784.549 23.63C784.337 24.0251 784.025 24.3585 783.644 24.598C782.671 25.2192 781.531 25.5309 780.375 25.4916Z" fill="#282938"/>
<path d="M798.622 24.8449C798.629 24.8908 798.627 24.9379 798.617 24.9831C798.606 25.0283 798.585 25.0708 798.557 25.1083C798.529 25.1457 798.494 25.1771 798.454 25.2009C798.414 25.2245 798.369 25.24 798.323 25.2463C797.847 25.4007 797.351 25.4836 796.851 25.4924C796.356 25.5434 795.856 25.4665 795.4 25.269C794.944 25.0716 794.546 24.7605 794.246 24.3657C793.327 25.1522 792.137 25.5558 790.926 25.4924C790.362 25.5182 789.801 25.4266 789.276 25.2237C788.752 25.0206 788.275 24.7108 787.878 24.3139C787.483 23.8979 787.177 23.4071 786.978 22.8708C786.779 22.3344 786.691 21.7636 786.719 21.1925V16.1286C786.719 15.8825 786.836 15.7529 787.083 15.7529H789.272C789.518 15.7529 789.636 15.8825 789.636 16.1286V20.804C789.612 21.3865 789.812 21.9562 790.196 22.3971C790.387 22.599 790.62 22.7578 790.878 22.8628C791.137 22.9678 791.415 23.0165 791.693 23.0058C791.979 23.0182 792.264 22.9742 792.532 22.8764C792.801 22.7786 793.047 22.6289 793.257 22.4359C793.455 22.2325 793.609 21.9908 793.711 21.7257C793.811 21.4606 793.856 21.1778 793.843 20.8947V16.1286C793.843 15.8825 793.959 15.7529 794.207 15.7529H796.421C796.669 15.7529 796.785 15.8825 796.785 16.1286V22.2287C796.785 22.7338 797.007 22.9799 797.438 22.9799C797.639 22.9876 797.841 22.9658 798.036 22.915C798.086 22.9013 798.137 22.8989 798.188 22.9079C798.238 22.9169 798.286 22.937 798.327 22.967C798.368 22.9969 798.402 23.0357 798.426 23.0806C798.451 23.1254 798.464 23.1751 798.466 23.226L798.622 24.8449Z" fill="#282938"/>
<path d="M819.317 24.8452C819.328 24.8915 819.329 24.9399 819.32 24.9868C819.31 25.0336 819.291 25.0778 819.262 25.1162C819.233 25.1546 819.197 25.1862 819.155 25.2087C819.112 25.2313 819.065 25.2442 819.017 25.2467C818.534 25.4032 818.028 25.4862 817.519 25.4927C816.745 25.5324 815.98 25.3137 815.344 24.8711C815.07 24.6814 814.847 24.4274 814.694 24.1314C814.542 23.8355 814.466 23.5068 814.472 23.1744V20.1308C814.499 19.5501 814.304 18.9807 813.924 18.5378C813.742 18.3354 813.517 18.1758 813.264 18.0705C813.012 17.9653 812.74 17.917 812.466 17.9291C812.22 17.9198 811.974 17.9664 811.749 18.0651C811.523 18.1638 811.323 18.3122 811.164 18.499C810.82 18.933 810.644 19.4753 810.669 20.0273V24.8063C810.669 25.0524 810.551 25.1819 810.305 25.1819H808.103C808.052 25.1882 808.001 25.1828 807.951 25.1662C807.903 25.1496 807.858 25.122 807.822 25.0859C807.786 25.0496 807.758 25.0056 807.742 24.9571C807.724 24.9087 807.719 24.8571 807.725 24.8063V20.1308C807.754 19.5565 807.573 18.991 807.217 18.5378C807.059 18.3475 806.859 18.1942 806.634 18.089C806.41 17.9838 806.164 17.9292 805.915 17.9291C805.649 17.9185 805.385 17.9637 805.137 18.0619C804.891 18.1601 804.668 18.3091 804.483 18.499C804.111 18.9192 803.919 19.4679 803.949 20.0273V24.8063C803.955 24.8571 803.95 24.9087 803.933 24.9571C803.916 25.0056 803.889 25.0496 803.852 25.0859C803.816 25.122 803.771 25.1496 803.723 25.1662C803.674 25.1828 803.623 25.1882 803.571 25.1819H801.448C801.201 25.1819 801.083 25.0524 801.083 24.8063V18.7062C801.099 18.6024 801.089 18.4964 801.056 18.3966C801.023 18.297 800.967 18.2064 800.892 18.1322C800.818 18.058 800.726 18.0021 800.626 17.9691C800.526 17.936 800.42 17.9269 800.316 17.9421H799.885C799.598 17.9421 799.455 17.8385 799.455 17.6312V16.103C799.449 16.0084 799.475 15.9144 799.529 15.8366C799.584 15.7589 799.663 15.702 799.755 15.6756C800.205 15.5127 800.682 15.4337 801.162 15.4424C801.622 15.4035 802.083 15.4946 802.494 15.7055C802.903 15.9163 803.246 16.2382 803.48 16.634C803.919 16.2198 804.44 15.9003 805.009 15.6953C805.578 15.4903 806.184 15.4042 806.788 15.4424C807.374 15.414 807.96 15.5234 808.496 15.762C809.032 16.0005 809.505 16.3613 809.874 16.8153C810.306 16.3495 810.835 15.9847 811.425 15.7472C812.015 15.5098 812.651 15.4057 813.287 15.4424C813.855 15.416 814.423 15.5071 814.954 15.71C815.486 15.9128 815.968 16.223 816.373 16.621C816.769 17.0361 817.076 17.5268 817.275 18.0633C817.474 18.5999 817.562 19.1711 817.533 19.7423V22.2419C817.533 22.7341 817.753 22.9802 818.17 22.9802C818.373 22.9896 818.575 22.9677 818.77 22.9154C819.039 22.9154 819.182 23.019 819.199 23.2263L819.317 24.8452Z" fill="#282938"/>
<path d="M666.601 14.0697C667.562 10.2293 669.787 6.81882 672.923 4.3815C676.058 1.94419 679.924 0.620117 683.903 0.620117C687.883 0.620117 691.748 1.94419 694.884 4.3815C698.019 6.81882 700.244 10.2293 701.205 14.0697H699.642C697.006 14.0311 694.424 14.8147 692.258 16.3104C692.133 16.4004 692.002 16.4825 691.867 16.5564H691.685C691.55 16.4825 691.419 16.4004 691.294 16.3104C689.109 14.8493 686.536 14.069 683.903 14.069C681.27 14.069 678.697 14.8493 676.512 16.3104C676.387 16.4004 676.257 16.4825 676.122 16.5564H675.939C675.804 16.4825 675.674 16.4004 675.549 16.3104C673.383 14.8147 670.801 14.0311 668.164 14.0697H666.601ZM696.829 22.1903C697.631 21.569 698.626 21.2439 699.642 21.2708H701.739V17.1133H699.642C697.852 17.0918 696.102 17.646 694.654 18.6934C693.839 19.2909 692.854 19.6132 691.841 19.6132C690.829 19.6132 689.843 19.2909 689.028 18.6934C687.543 17.6656 685.777 17.1146 683.968 17.1146C682.159 17.1146 680.394 17.6656 678.909 18.6934C678.094 19.2909 677.108 19.6132 676.096 19.6132C675.083 19.6132 674.097 19.2909 673.282 18.6934C671.817 17.6326 670.042 17.0777 668.229 17.1133H666.067V21.2708H668.164C669.181 21.2439 670.175 21.569 670.977 22.1903C672.459 23.2188 674.223 23.7703 676.03 23.7703C677.838 23.7703 679.602 23.2188 681.084 22.1903C681.887 21.5708 682.881 21.2461 683.897 21.2708C684.914 21.2418 685.909 21.567 686.71 22.1903C688.195 23.2181 689.96 23.7691 691.77 23.7691C693.579 23.7691 695.344 23.2181 696.829 22.1903ZM696.829 29.6244C697.631 29.0031 698.626 28.678 699.642 28.7049H701.739V24.5475H699.642C697.852 24.5259 696.102 25.0801 694.654 26.1275C693.839 26.725 692.854 27.0473 691.841 27.0473C690.829 27.0473 689.843 26.725 689.028 26.1275C687.543 25.0996 685.777 24.5487 683.968 24.5487C682.159 24.5487 680.394 25.0996 678.909 26.1275C678.094 26.725 677.108 27.0473 676.096 27.0473C675.083 27.0473 674.097 26.725 673.282 26.1275C671.817 25.0667 670.042 24.5118 668.229 24.5475H666.067V28.7049H668.164C669.181 28.678 670.175 29.0031 670.977 29.6244C672.459 30.653 674.223 31.2044 676.03 31.2044C677.838 31.2044 679.602 30.653 681.084 29.6244C681.887 29.005 682.881 28.6802 683.897 28.7049C684.914 28.6759 685.909 29.0011 686.71 29.6244C688.195 30.6522 689.96 31.2033 691.77 31.2033C693.579 31.2033 695.344 30.6522 696.829 29.6244Z" fill="#282938"/>
</g>
<path d="M917.74 9.89956H921.169V23.7669H917.74V9.89956ZM922.536 18.5507C922.536 15.1158 924.673 13.057 927.877 13.057C931.082 13.057 933.218 15.1158 933.218 18.5507C933.218 21.9855 931.156 24.0656 927.877 24.0656C924.598 24.0656 922.536 22.0602 922.536 18.5507ZM929.821 18.5507C929.821 16.6626 929.084 15.5532 927.909 15.5532C926.734 15.5532 926.008 16.6199 926.008 18.5507C926.008 20.4814 926.734 21.5375 927.909 21.5375C929.084 21.5375 929.842 20.4815 929.842 18.5613L929.821 18.5507ZM934.585 24.4816H937.897C938.047 24.8377 938.311 25.1346 938.646 25.3272C938.982 25.5199 939.371 25.5975 939.755 25.5483C941.069 25.5483 941.753 24.8443 941.753 23.7989V21.8788H941.763C941.48 22.4767 941.023 22.975 940.451 23.3082C939.879 23.6415 939.219 23.7939 938.559 23.7455C936.049 23.7455 934.382 21.8362 934.382 18.5507C934.382 15.2651 935.974 13.217 938.655 13.217C939.332 13.1808 940.004 13.3553 940.578 13.7164C941.152 14.0775 941.6 14.6074 941.859 15.2331H941.763V13.3024H945.16V23.6922C945.16 26.199 942.938 27.7671 939.67 27.7671C936.7 27.7564 934.799 26.4017 934.607 24.4923L934.585 24.4816ZM941.763 18.5507C941.763 16.8759 940.994 15.8198 939.776 15.8198C938.559 15.8198 937.811 16.8866 937.811 18.5507C937.811 20.2148 938.548 21.1961 939.776 21.1961C941.005 21.1961 941.763 20.2894 941.763 18.5507ZM946.517 18.5507C946.517 15.1158 948.653 13.057 951.857 13.057C955.062 13.057 957.198 15.1158 957.198 18.5507C957.198 21.9855 955.126 24.0656 951.857 24.0656C948.589 24.0656 946.538 22.0602 946.538 18.5507H946.517ZM953.802 18.5507C953.802 16.6626 953.054 15.5532 951.89 15.5532C950.725 15.5532 949.988 16.6199 949.988 18.5507C949.988 20.4814 950.715 21.5375 951.89 21.5375C953.065 21.5375 953.823 20.4815 953.823 18.5613L953.802 18.5507ZM958.587 10.7743C958.572 10.4255 958.662 10.0802 958.845 9.78285C959.028 9.4855 959.296 9.24971 959.615 9.10579C959.933 8.96188 960.288 8.9164 960.632 8.97518C960.977 9.03405 961.296 9.19447 961.549 9.4359C961.801 9.67733 961.976 9.98866 962.049 10.3299C962.123 10.6711 962.093 11.0266 961.963 11.3507C961.833 11.6747 961.609 11.9524 961.319 12.1482C961.03 12.3439 960.688 12.4487 960.339 12.449C960.115 12.4547 959.893 12.416 959.685 12.3352C959.476 12.2543 959.286 12.133 959.125 11.9782C958.964 11.8234 958.836 11.6382 958.747 11.4334C958.658 11.2285 958.611 11.0081 958.608 10.785L958.587 10.7743ZM958.587 13.2917H962.059V23.8095H958.64L958.587 13.2917ZM974.545 18.5507C974.545 21.9748 973.007 23.9589 970.39 23.9589C969.72 24.0002 969.054 23.8351 968.48 23.486C967.907 23.137 967.456 22.6207 967.186 22.0068H967.122V27.1911H963.692V13.3237H967.1V15.2011H967.165C967.425 14.5753 967.873 14.0448 968.446 13.6821C969.019 13.3194 969.691 13.1422 970.368 13.1744C973.06 13.153 974.609 15.1265 974.609 18.5613L974.545 18.5507ZM971.053 18.5507C971.053 16.8866 970.272 15.8092 969.065 15.8092C967.858 15.8092 967.1 16.8759 967.09 18.5507C967.079 20.2254 967.858 21.2815 969.065 21.2815C970.272 21.2815 971.117 20.2894 971.117 18.5613L971.053 18.5507ZM980.399 13.0463C983.273 13.0463 985.056 14.4011 985.077 16.5772H981.948C981.948 15.8198 981.318 15.3505 980.378 15.3505C979.438 15.3505 978.989 15.7132 978.989 16.2572C978.989 16.8012 979.384 16.9719 980.175 17.1319L982.375 17.5799C984.512 18.028 985.366 18.8814 985.366 20.4708C985.366 22.6042 983.39 24.0549 980.453 24.0549C977.515 24.0549 975.602 22.6468 975.464 20.5028H978.786C978.882 21.2815 979.501 21.7402 980.506 21.7402C981.51 21.7402 981.98 21.4202 981.98 20.8548C981.98 20.2894 981.66 20.1934 980.837 20.0228L978.85 19.6067C976.788 19.1694 975.709 18.092 975.709 16.4812C975.774 14.3904 977.568 13.057 980.463 13.057L980.399 13.0463ZM996.848 23.7989H993.527V21.8255H993.463C993.277 22.4837 992.872 23.0591 992.315 23.4565C991.757 23.8541 991.081 24.05 990.397 24.0122C989.88 24.0291 989.367 23.9366 988.889 23.7411C988.411 23.5455 987.98 23.2511 987.624 22.8774C987.268 22.5037 986.995 22.0591 986.823 21.5726C986.651 21.0861 986.584 20.5689 986.626 20.0548V13.3024H990.055V19.3187C990.055 20.5561 990.707 21.2282 991.775 21.2282C992.026 21.2262 992.273 21.1707 992.5 21.0652C992.727 20.9597 992.929 20.8068 993.092 20.6167C993.255 20.4266 993.375 20.2038 993.445 19.9633C993.514 19.7228 993.531 19.4703 993.495 19.2227V13.3024H996.913L996.848 23.7989ZM998.504 13.2917H1001.84V15.3185H1001.91C1002.1 14.6692 1002.49 14.0992 1003.03 13.6978C1003.58 13.2963 1004.24 13.086 1004.91 13.0997C1005.59 13.0409 1006.27 13.2367 1006.81 13.649C1007.35 14.0613 1007.72 14.6604 1007.84 15.3291H1007.99C1008.2 14.6569 1008.63 14.0738 1009.21 13.6706C1009.79 13.2674 1010.49 13.0667 1011.19 13.0997C1011.66 13.0819 1012.13 13.1631 1012.57 13.3382C1013 13.5132 1013.39 13.778 1013.72 14.1154C1014.05 14.4527 1014.3 14.8549 1014.46 15.2958C1014.62 15.7365 1014.68 16.2059 1014.64 16.6732V23.8095H1011.19V17.5479C1011.19 16.4812 1010.69 15.8838 1009.72 15.8838C1009.5 15.8803 1009.29 15.9234 1009.09 16.0101C1008.9 16.0968 1008.72 16.2251 1008.58 16.3862C1008.43 16.5473 1008.33 16.7374 1008.26 16.9434C1008.2 17.1495 1008.19 17.3666 1008.21 17.5799V23.8095H1004.95V17.5159C1004.95 16.4492 1004.42 15.8838 1003.48 15.8838C1003.26 15.8821 1003.05 15.9269 1002.85 16.0154C1002.65 16.1037 1002.47 16.2335 1002.33 16.3962C1002.18 16.5589 1002.07 16.7506 1002.01 16.9584C1001.95 17.1663 1001.93 17.3855 1001.95 17.6013V23.8095H998.526L998.504 13.2917Z" fill="#282938"/>
<path d="M910.958 10.8063C910.958 8.68319 910.316 6.60957 909.116 4.85701C907.916 3.10445 906.214 1.75469 904.233 0.984508C902.252 0.214331 900.084 0.059655 898.014 0.540737C895.943 1.02182 894.066 2.11623 892.629 3.68062H879.298V31.778H907.444V18.6467C908.549 17.6599 909.433 16.4517 910.038 15.1007C910.644 13.7497 910.957 12.2865 910.958 10.8063ZM905.543 10.8063C905.545 11.8236 905.245 12.8188 904.68 13.6658C904.116 14.5127 903.312 15.1733 902.372 15.5641C901.431 15.9549 900.396 16.0583 899.396 15.861C898.397 15.6639 897.478 15.1751 896.757 14.4564C896.036 13.7378 895.545 12.8216 895.345 11.824C895.146 10.8263 895.247 9.79199 895.636 8.85186C896.026 7.91172 896.686 7.10808 897.533 6.54264C898.38 5.97721 899.375 5.67539 900.394 5.67538C901.758 5.67538 903.066 6.21562 904.031 7.17754C904.996 8.13947 905.54 9.44453 905.543 10.8063ZM902.028 26.3698H884.713V9.08891H889.99C889.888 9.65582 889.835 10.2303 889.83 10.8063C889.833 13.6034 890.947 16.2852 892.927 18.2631C894.908 20.2409 897.593 21.3533 900.394 21.3562C900.942 21.3532 901.488 21.3069 902.028 21.2175V26.3698Z" fill="#282938"/>
</g>
<defs>
<clipPath id="clip0_758_925">
<rect width="161.815" height="32" fill="white"/>
</clipPath>
<clipPath id="clip1_758_925">
<rect width="135.055" height="32" fill="white" transform="translate(445.815)"/>
</clipPath>
<clipPath id="clip2_758_925">
<rect width="153.743" height="32" fill="white" transform="translate(665.724)"/>
</clipPath>
</defs>
</svg>
