
<svg width="176" height="56" viewBox="0 0 176 56" fill="none" xmlns="http://www.w3.org/2000/svg">
<path d="M1.368 18.2V13.298H10.526V41H5.054V18.2H1.368ZM15.7816 26.788C15.7816 22.4053 16.5669 18.9727 18.1376 16.49C19.7336 14.0073 22.3682 12.766 26.0416 12.766C29.7149 12.766 32.3369 14.0073 33.9076 16.49C35.5036 18.9727 36.3016 22.4053 36.3016 26.788C36.3016 31.196 35.5036 34.654 33.9076 37.162C32.3369 39.67 29.7149 40.924 26.0416 40.924C22.3682 40.924 19.7336 39.67 18.1376 37.162C16.5669 34.654 15.7816 31.196 15.7816 26.788ZM31.0576 26.788C31.0576 24.9133 30.9309 23.3427 30.6776 22.076C30.4496 20.784 29.9682 19.7327 29.2336 18.922C28.5242 18.1113 27.4602 17.706 26.0416 17.706C24.6229 17.706 23.5462 18.1113 22.8116 18.922C22.1022 19.7327 21.6209 20.784 21.3676 22.076C21.1396 23.3427 21.0256 24.9133 21.0256 26.788C21.0256 28.7133 21.1396 30.3347 21.3676 31.652C21.5956 32.944 22.0769 33.9953 22.8116 34.806C23.5462 35.5913 24.6229 35.984 26.0416 35.984C27.4602 35.984 28.5369 35.5913 29.2716 34.806C30.0062 33.9953 30.4876 32.944 30.7156 31.652C30.9436 30.3347 31.0576 28.7133 31.0576 26.788ZM40.348 26.788C40.348 22.4053 41.1333 18.9727 42.704 16.49C44.3 14.0073 46.9347 12.766 50.608 12.766C54.2813 12.766 56.9033 14.0073 58.474 16.49C60.07 18.9727 60.868 22.4053 60.868 26.788C60.868 31.196 60.07 34.654 58.474 37.162C56.9033 39.67 54.2813 40.924 50.608 40.924C46.9347 40.924 44.3 39.67 42.704 37.162C41.1333 34.654 40.348 31.196 40.348 26.788ZM55.624 26.788C55.624 24.9133 55.4973 23.3427 55.244 22.076C55.016 20.784 54.5347 19.7327 53.8 18.922C53.0907 18.1113 52.0267 17.706 50.608 17.706C49.1893 17.706 48.1127 18.1113 47.378 18.922C46.6687 19.7327 46.1873 20.784 45.934 22.076C45.706 23.3427 45.592 24.9133 45.592 26.788C45.592 28.7133 45.706 30.3347 45.934 31.652C46.162 32.944 46.6433 33.9953 47.378 34.806C48.1127 35.5913 49.1893 35.984 50.608 35.984C52.0267 35.984 53.1033 35.5913 53.838 34.806C54.5727 33.9953 55.054 32.944 55.282 31.652C55.51 30.3347 55.624 28.7133 55.624 26.788ZM67.8784 41.266C66.9157 41.266 66.1177 40.9747 65.4844 40.392C64.8764 39.784 64.5724 39.0367 64.5724 38.15C64.5724 37.2633 64.8764 36.5287 65.4844 35.946C66.1177 35.338 66.9157 35.034 67.8784 35.034C68.8157 35.034 69.5884 35.338 70.1964 35.946C70.8044 36.5287 71.1084 37.2633 71.1084 38.15C71.1084 39.0367 70.8044 39.784 70.1964 40.392C69.5884 40.9747 68.8157 41.266 67.8784 41.266ZM74.7855 26.788C74.7855 22.4053 75.5708 18.9727 77.1415 16.49C78.7375 14.0073 81.3722 12.766 85.0455 12.766C88.7188 12.766 91.3408 14.0073 92.9115 16.49C94.5075 18.9727 95.3055 22.4053 95.3055 26.788C95.3055 31.196 94.5075 34.654 92.9115 37.162C91.3408 39.67 88.7188 40.924 85.0455 40.924C81.3722 40.924 78.7375 39.67 77.1415 37.162C75.5708 34.654 74.7855 31.196 74.7855 26.788ZM90.0615 26.788C90.0615 24.9133 89.9348 23.3427 89.6815 22.076C89.4535 20.784 88.9722 19.7327 88.2375 18.922C87.5282 18.1113 86.4642 17.706 85.0455 17.706C83.6268 17.706 82.5502 18.1113 81.8155 18.922C81.1062 19.7327 80.6248 20.784 80.3715 22.076C80.1435 23.3427 80.0295 24.9133 80.0295 26.788C80.0295 28.7133 80.1435 30.3347 80.3715 31.652C80.5995 32.944 81.0808 33.9953 81.8155 34.806C82.5502 35.5913 83.6268 35.984 85.0455 35.984C86.4642 35.984 87.5408 35.5913 88.2755 34.806C89.0102 33.9953 89.4915 32.944 89.7195 31.652C89.9475 30.3347 90.0615 28.7133 90.0615 26.788ZM99.3519 26.788C99.3519 22.4053 100.137 18.9727 101.708 16.49C103.304 14.0073 105.939 12.766 109.612 12.766C113.285 12.766 115.907 14.0073 117.478 16.49C119.074 18.9727 119.872 22.4053 119.872 26.788C119.872 31.196 119.074 34.654 117.478 37.162C115.907 39.67 113.285 40.924 109.612 40.924C105.939 40.924 103.304 39.67 101.708 37.162C100.137 34.654 99.3519 31.196 99.3519 26.788ZM114.628 26.788C114.628 24.9133 114.501 23.3427 114.248 22.076C114.02 20.784 113.539 19.7327 112.804 18.922C112.095 18.1113 111.031 17.706 109.612 17.706C108.193 17.706 107.117 18.1113 106.382 18.922C105.673 19.7327 105.191 20.784 104.938 22.076C104.71 23.3427 104.596 24.9133 104.596 26.788C104.596 28.7133 104.71 30.3347 104.938 31.652C105.166 32.944 105.647 33.9953 106.382 34.806C107.117 35.5913 108.193 35.984 109.612 35.984C111.031 35.984 112.107 35.5913 112.842 34.806C113.577 33.9953 114.058 32.944 114.286 31.652C114.514 30.3347 114.628 28.7133 114.628 26.788ZM123.918 26.788C123.918 22.4053 124.704 18.9727 126.274 16.49C127.87 14.0073 130.505 12.766 134.178 12.766C137.852 12.766 140.474 14.0073 142.044 16.49C143.64 18.9727 144.438 22.4053 144.438 26.788C144.438 31.196 143.64 34.654 142.044 37.162C140.474 39.67 137.852 40.924 134.178 40.924C130.505 40.924 127.87 39.67 126.274 37.162C124.704 34.654 123.918 31.196 123.918 26.788ZM139.194 26.788C139.194 24.9133 139.068 23.3427 138.814 22.076C138.586 20.784 138.105 19.7327 137.37 18.922C136.661 18.1113 135.597 17.706 134.178 17.706C132.76 17.706 131.683 18.1113 130.948 18.922C130.239 19.7327 129.758 20.784 129.504 22.076C129.276 23.3427 129.162 24.9133 129.162 26.788C129.162 28.7133 129.276 30.3347 129.504 31.652C129.732 32.944 130.214 33.9953 130.948 34.806C131.683 35.5913 132.76 35.984 134.178 35.984C135.597 35.984 136.674 35.5913 137.408 34.806C138.143 33.9953 138.624 32.944 138.852 31.652C139.08 30.3347 139.194 28.7133 139.194 26.788ZM168.967 29.79H161.785V37.162H156.769V29.79H149.587V25.154H156.769V17.782H161.785V25.154H168.967V29.79Z" fill="#282938"/>
</svg>
